<?xml version="1.0" encoding="UTF-8"?>
<svg width="149px" height="48px" viewBox="0 0 149 48" version="1.1" xmlns="http://www.w3.org/2000/svg" xmlns:xlink="http://www.w3.org/1999/xlink">
    <!-- Generator: Sketch 42 (36781) - http://www.bohemiancoding.com/sketch -->
    <title>farmbox-logo</title>
    <desc>Created with Sketch.</desc>
    <defs></defs>
    <g id="Page-3" stroke="none" stroke-width="1" fill="none" fill-rule="evenodd">
        <g id="iPhone-SE" transform="translate(-19.000000, -17.000000)">
            <g id="farmbox-logo" transform="translate(19.000000, 17.000000)">
                <g id="Group-7">
                    <g id="Group-3">
                        <path d="M41.9473268,11.5140664 L22.2422816,0.367214788 C21.7309957,0.0777428472 21.1019112,0.0777428472 20.5911204,0.36672991 L0.881620587,11.5140664 C0.370829704,11.8020838 0.0565349262,12.335934 0.0565349262,12.9139081 L0.0565349262,35.1673666 C0.0565349262,35.7448559 0.370829704,36.279191 0.881620587,36.5676932 L20.5911204,47.7130902 C20.8470108,47.8585535 21.1316084,47.9308003 21.4157111,47.9308003 C21.7012986,47.9308003 21.9863912,47.8585535 22.2422816,47.7130902 L41.9473268,36.5676932 C42.4571278,36.2787061 42.7724124,35.7453407 42.7724124,35.1673666 L42.7724124,12.9139081 C42.7724124,12.335934 42.4571278,11.8020838 41.9473268,11.5140664 L41.9473268,11.5140664 Z" id="Shape-Copy-2" fill="#000A0A"></path>
                        <path d="M40.6339695,12.2325179 L22.2563569,1.83657516 C21.7795139,1.56660353 21.1928077,1.56660353 20.7164263,1.83612295 L2.33465929,12.2325179 C1.85827789,12.5011329 1.56515562,12.9990203 1.56515562,13.5380591 L1.56515562,34.2924108 C1.56515562,34.8309974 1.85827789,35.329337 2.33465929,35.5984042 L20.7164263,45.9929903 C20.9550787,46.1286544 21.2205043,46.1960343 21.4854684,46.1960343 C21.7518173,46.1960343 22.0177046,46.1286544 22.2563569,45.9929903 L40.6339695,35.5984042 C41.1094277,35.3288848 41.4034732,34.8314496 41.4034732,34.2924108 L41.4034732,13.5380591 C41.4034732,12.9990203 41.1094277,12.5011329 40.6339695,12.2325179 L40.6339695,12.2325179 Z" id="Shape-Copy-3" fill="#FFFFFF"></path>
                        <path d="M21.4758924,4.02485352 L21.4758924,4.0072724 L21.4603506,4.0160621 L21.4448118,4.0072724 L21.4448118,4.02485009 L3.07377631,14.4146209 L3.07377631,27.7245638 L21.4603506,17.3264441 L39.8433397,27.7245638 L39.8433397,14.4146209 L21.4758924,4.02485352 Z" id="Combined-Shape-Copy" fill="#CEF1F9"></path>
                        <polygon id="Shape-Copy-4" fill="#ABEB69" points="3.07377631 27.7252229 21.4758924 38.1312532 39.8744203 27.7252229 21.4749954 17.3178745"></polygon>
                        <path d="M5.14693627,28.8922621 L22.9670202,18.8159933 L23.8421153,19.2540818 L5.97527822,29.360673 L7.9673113,30.4871281 L25.9833645,20.299983 L26.8589082,20.7385109 L8.79674444,30.956156 L10.7884616,32.0824324 L29.0006059,21.7839727 L29.875701,22.2225006 L11.6170458,32.5509802 L13.2317105,33.464041 L31.2648825,23.2679624 L32.1399777,23.7069297 L14.0615304,33.9332876 L16.0532335,35.059556 L34.2807783,24.7519521 L35.1576676,25.1909194 L16.8820526,35.5282367 L18.8398848,36.6353519 L37.2989167,26.2359418 L38.1744604,26.6735909 L19.67003,37.1047825 L21.4660341,38.120387 L39.8547054,27.7199315 L39.8547054,30.0848185 L21.4758924,40.4506843 L21.4758924,40.4701966 L21.4586182,40.4604271 L21.4561776,40.4618037 L21.4561776,40.4590469 L3.07377631,30.0628481 L3.07377631,27.7199315 L5.14693627,28.8922621 Z" id="Combined-Shape-Copy-2" fill="#276D33"></path>
                        <polygon id="Shape-Copy-5" fill="#532D15" points="39.8769673 30.0349892 39.8769673 34.1812311 21.4784395 44.5877008 21.4784395 40.4423377"></polygon>
                        <polygon id="Shape-Copy-6" fill="#532D15" points="21.4913994 44.5877008 21.4913994 40.4423377 3.08928325 30.0349892 3.08928325 34.1812311"></polygon>
                    </g>
                    <path d="M21.4672662,24.5184479 L21.5854605,45.3492112 L39.7665697,34.9276338 L39.7665697,14.2263486 L21.5295181,24.4824036 L39.5178124,14.0670289 L21.5899735,3.71638623 L3.47406809,14.2509 L18.0953369,22.5975508 L3.22531081,14.2263486 L3.22531081,34.9276338 L21.4064201,45.3492112 L21.4039353,24.4862867 L21.4637948,24.5204579 L21.4672662,24.5184479 Z" id="Combined-Shape" stroke="#FFFFFF" stroke-linecap="round" stroke-linejoin="round" transform="translate(21.495940, 24.593358) scale(1, -1) rotate(-180.000000) translate(-21.495940, -24.593358) "></path>
                </g>
                <g id="Group-4" transform="translate(55.723684, 14.510121)" fill="#FFFFFF">
                    <g id="Group-2">
                        <path d="M6.3215417,0.0259780034 C7.50619111,0.0259780034 8.42409827,0.197492816 9.03066849,0.309808663 C9.12770321,0.32805492 9.21854423,0.344273814 9.30277862,0.359681764 L9.57117253,0.406311086 L9.57117253,3.01633674 L9.1153158,2.92105073 C8.48809989,2.78886674 7.77582376,2.6396529 6.72661004,2.6396529 C5.84627803,2.6396529 5.34169749,3.02282429 5.34169749,3.69063729 L5.34169749,5.70056384 L9.10458005,5.70056384 L9.10458005,8.34181086 L5.34169749,8.34181086 L5.34169749,20.0465818 L2.04664617,20.0465818 L2.04664617,8.34181086 L0.0254336016,8.34181086 L0.0254336016,5.70056384 L2.04664617,5.70056384 L2.04664617,3.88283119 C2.04664617,1.46783775 3.64544802,0.0259780034 6.3215417,0.0259780034 Z" id="Combined-Shape"></path>
                        <path d="M13.7226069,20.035634 C12.3187003,20.035634 11.2604025,19.7822138 10.487428,19.2611818 C9.48033152,18.5828265 8.96955727,17.4393944 8.96955727,15.861296 C8.96955727,14.3849711 9.49437058,13.1782853 10.4861893,12.3718008 C11.4705756,11.5718038 12.8629206,11.1659259 14.6248233,11.1659259 L16.961089,11.1659259 L16.961089,9.80353876 C16.961089,8.6244251 16.1340229,7.92011959 14.7491103,7.92011959 C12.9322901,7.92011959 11.7728284,8.12123389 10.2685838,8.49224111 L10.1199348,8.52913909 L10.1199348,6.28728236 L10.2091242,6.26376496 C11.549855,5.91262589 13.0912618,5.71110612 14.4377734,5.71110612 C18.3786218,5.71110612 19.8440525,6.96888141 19.8440525,10.3517374 L19.8440525,16.9301211 C19.8440525,17.4483148 20.2408626,17.6895709 21.0922906,17.6895709 L21.2112098,17.6895709 L21.2112098,19.8438456 L20.1595186,19.8438456 C19.4336163,19.8438456 18.4678111,19.5758284 17.9343266,18.8232716 L17.7926972,18.6233738 L17.6180347,18.7965105 C16.7657809,19.6419204 15.5278656,20.035634 13.7226069,20.035634 L13.7226069,20.035634 L13.7226069,20.035634 Z M14.468329,13.2654619 C13.2898733,13.2654619 11.9140449,13.9020535 11.9140449,15.6966742 C11.9140449,17.2094916 12.6180627,17.8266206 14.344042,17.8266206 C16.5172068,17.8266206 16.961089,16.4062508 16.961089,16.0259178 L16.961089,13.2654619 L14.468329,13.2654619 L14.468329,13.2654619 L14.468329,13.2654619 Z" id="Shape"></path>
                        <path d="M14.4377734,5.9138423 C18.2283212,5.9138423 19.6375957,7.11687883 19.6375957,10.3517374 L19.6375957,16.9301211 C19.6375957,17.548872 20.0975815,17.8720335 21.0051658,17.8914961 L21.0051658,19.6411094 L20.1599315,19.6411094 C19.4860563,19.6411094 18.5920982,19.3962041 18.1040342,18.7073065 L17.8207754,18.3079163 L17.4714504,18.6537842 C16.660075,19.4582414 15.468406,19.8328978 13.722194,19.8328978 C12.3612304,19.8328978 11.3413336,19.5912363 10.6034568,19.0937217 C9.65581984,18.4559137 9.1756012,17.3684368 9.1756012,15.861296 C9.1756012,14.4474138 9.67440096,13.2946559 10.6174958,12.5279076 C11.5634811,11.7587265 12.9120573,11.3686621 14.6244104,11.3686621 L16.7542193,11.3686621 L17.167133,11.3686621 L17.167133,10.9631897 L17.167133,9.80353876 C17.167133,8.51697492 16.2405546,7.71738341 14.7486974,7.71738341 C12.9533487,7.71738341 11.793887,7.9111992 10.3259788,8.2692313 L10.3259788,6.44257827 C11.635741,6.10603621 13.1300757,5.9138423 14.4377734,5.9138423 L14.4377734,5.9138423 L14.4377734,5.9138423 Z M14.3444549,18.0293567 C16.4775671,18.0293567 17.1679588,16.6795392 17.1679588,16.0259178 L17.1679588,13.468198 L17.1679588,13.0627257 L16.7550451,13.0627257 L14.4687419,13.0627257 C13.1953161,13.0627257 11.7080009,13.7524342 11.7080009,15.6966742 C11.7080009,17.3319443 12.4962532,18.0293567 14.3444549,18.0293567 L14.3444549,18.0293567 L14.3444549,18.0293567 Z M14.4377734,5.50836993 C18.4764823,5.50836993 20.0505094,6.86548596 20.0509223,10.3521429 L20.0509223,16.9305266 C20.0509223,17.1113673 20.0509223,17.4872402 21.0927035,17.4872402 L21.4180795,17.4872402 L21.4180795,20.0469873 L20.1599315,20.0469873 C19.367963,20.0469873 18.3385691,19.7481541 17.7654449,18.9396422 C16.8727255,19.8247884 15.5724603,20.2387757 13.7226069,20.2387757 C12.2757573,20.2387757 11.1798843,19.9744077 10.3705735,19.4286419 C9.30443028,18.7105503 8.76310042,17.5103521 8.76310042,15.8617014 C8.76310042,14.3233393 9.31310147,13.0627257 10.3544698,12.2160994 C11.3764312,11.3852865 12.8125451,10.9635952 14.6248233,10.9635952 L16.7546322,10.9635952 L16.7546322,9.80394423 C16.7546322,8.73633548 16.023362,8.12326125 14.7491103,8.12326125 C12.9533487,8.12326125 11.8062744,8.32234818 10.3189592,8.68930068 L9.91347799,8.78864141 L9.91347799,6.13158097 L10.1558583,6.0679218 C11.5118669,5.71272801 13.0722678,5.50836993 14.4377734,5.50836993 Z M14.3444549,17.6238844 C16.3458476,17.6238844 16.7546322,16.3636762 16.7550451,16.0259178 L16.7550451,13.468198 L14.4687419,13.468198 C13.3340551,13.468198 12.1209146,14.0537001 12.1209146,15.6966742 C12.1209146,17.1028524 12.7233557,17.6238844 14.3444549,17.6238844 Z" id="Shape"></path>
                        <path d="M29.0210595,5.50836993 C29.7263161,5.50836993 30.3052211,5.55783756 30.7416709,5.6527181 L30.9956128,5.70948423 L30.9956128,8.80040011 L30.602519,8.71890016 C29.8250025,8.55711669 29.2361876,8.47886052 28.8046927,8.47886052 C26.5679392,8.47886052 26.3936896,10.6258367 26.3936896,11.282702 L26.3936896,20.0469873 L23.0982254,20.0469873 L23.0982254,5.70096931 L25.8874574,5.70096931 L26.0171123,6.67329205 C26.8239457,5.89073038 27.8136999,5.50836993 29.0210595,5.50836993 Z" id="Combined-Shape"></path>
                        <path d="M45.9071652,5.50836993 C49.1865258,5.50836993 50.5863032,7.05524703 50.5850645,10.680981 L50.5850645,20.0469873 L47.2900131,20.0469873 L47.2900131,10.4068816 C47.2900131,8.65686289 46.8576925,8.12326125 45.4397468,8.12326125 C43.9305473,8.12326125 42.9672196,9.31332266 42.9672196,10.1331878 L42.9672196,20.0469873 L39.6721684,20.0469873 L39.6721684,10.4068816 C39.6721684,8.65686289 39.2406736,8.12326125 37.8210763,8.12326125 C36.3122896,8.12326125 35.3493749,9.31332266 35.3493749,10.1331878 L35.3493749,20.0469873 L32.0534977,20.0469873 L32.0534977,5.70096931 L34.8303424,5.70096931 L34.9938562,6.60760553 C35.9266283,5.87775526 37.0324111,5.50836993 38.2884946,5.50836993 C39.9500594,5.50836993 41.2036654,6.02453626 42.0208214,7.04551569 C43.0456732,6.01237209 44.3215765,5.50836993 45.9071652,5.50836993 Z" id="Combined-Shape"></path>
                        <path d="M57.9089148,20.035634 C56.0499773,20.035634 55.0614619,19.9066938 54.1059796,19.7818083 C53.8978711,19.7546417 53.7062791,19.7290969 53.5089064,19.7063905 L53.4044392,19.6934154 L53.4044392,0.421313564 L56.2882285,0.421313564 L56.2882285,6.77344373 L56.6078237,6.56705829 C57.4889816,5.9989915 58.5018589,5.71110612 59.6192034,5.71110612 C61.448824,5.71110612 62.7300952,6.23457095 63.5369285,7.31110009 C64.2975156,8.32478102 64.6517955,9.81367556 64.6517955,11.9967388 C64.6517955,15.1277965 64.1938742,17.0667653 63.1669579,18.2835879 C62.1458223,19.4951394 60.5238973,20.035634 57.9089148,20.035634 L57.9089148,20.035634 L57.9089148,20.035634 Z M59.1220553,7.92011959 C57.3923598,7.92011959 56.2886414,9.2306063 56.2886414,10.1327823 L56.2886414,17.7309291 L56.4744526,17.7487699 C57.0116533,17.8014813 57.5831259,17.8266206 58.2210776,17.8266206 C60.8273888,17.8266206 61.7073079,16.4244971 61.7073079,12.2700272 C61.7077209,8.93663883 61.1036281,7.92011959 59.1220553,7.92011959 L59.1220553,7.92011959 L59.1220553,7.92011959 Z" id="Shape"></path>
                        <path d="M56.0821846,0.624049749 L56.0821846,6.39757084 L56.0821846,7.14931662 L56.7217879,6.73654574 C57.5686739,6.19037446 58.5435632,5.9138423 59.6200292,5.9138423 C61.3790415,5.9138423 62.6062211,6.41054596 63.3717631,7.43193086 C64.1046849,8.4087138 64.4465774,9.85908847 64.4465774,11.9967388 C64.4465774,15.0771124 64.003521,16.9759395 63.0092248,18.1546477 C62.0302065,19.3155151 60.4574182,19.8333033 57.9097406,19.8333033 C56.0640164,19.8333033 55.0829334,19.7055795 54.1191928,19.5794776 C53.9490724,19.5567712 53.7818424,19.5352811 53.6117219,19.514602 L53.6117219,0.624455222 L56.0821846,0.624455222 L56.0821846,0.624049749 L56.0821846,0.624049749 Z M58.2210776,18.0293567 C61.3257757,18.0293567 61.9137648,16.0052387 61.9137648,12.2700272 C61.9137648,8.82351204 61.2353476,7.71697794 59.1216423,7.71697794 C57.2660082,7.71697794 56.0817717,9.14748446 56.0817717,10.1323768 L56.0817717,17.5468446 L56.0817717,17.9137971 L56.4538069,17.9502896 C56.9976143,18.003812 57.5761064,18.0293567 58.2210776,18.0293567 L58.2210776,18.0293567 L58.2210776,18.0293567 Z M56.4950983,0.218577379 L53.1983953,0.218577379 L53.1983953,19.8730396 L53.4849574,19.9079102 C53.6860464,19.9314276 53.8809416,19.9569724 54.0791402,19.9833281 C55.0441195,20.10943 56.0408932,20.2387757 57.9089148,20.2387757 C60.5907893,20.2387757 62.2614381,19.67598 63.3263426,18.4133391 C64.3858791,17.1571857 64.8586653,15.1784805 64.8586653,11.9971443 C64.8586653,9.77029002 64.4919979,8.24247013 63.7033328,7.19148574 C62.8543822,6.05859594 61.5186064,5.5087754 59.6192034,5.5087754 C58.4572642,5.5087754 57.4092892,5.80801401 56.4946854,6.39797631 L56.4946854,0.218577379 L56.4950983,0.218577379 L56.4950983,0.218577379 L56.4950983,0.218577379 Z M58.2210776,17.6238844 C57.5938616,17.6238844 57.0265182,17.5987451 56.4946854,17.5472501 L56.4946854,10.1327823 C56.4946854,9.33197439 57.5418345,8.12285578 59.1216423,8.12285578 C60.7671034,8.12285578 61.5008511,8.72254941 61.5008511,12.2704327 C61.501264,16.3243454 60.7043406,17.6238844 58.2210776,17.6238844 L58.2210776,17.6238844 L58.2210776,17.6238844 L58.2210776,17.6238844 Z" id="Shape"></path>
                        <path d="M72.9286507,20.035634 C70.8066872,20.035634 69.3800703,19.5462289 68.4394529,18.4952445 C67.3898263,17.3246458 66.9009365,15.4513634 66.9009365,12.5988653 C66.9009365,10.2207698 67.3807422,8.51697492 68.3680189,7.38935626 C69.3569472,6.26011571 70.8488044,5.71070064 72.9286507,5.71070064 C75.0093228,5.71070064 76.5007671,6.25971023 77.4892825,7.38935626 C78.4769721,8.51819134 78.9571907,10.2219862 78.9571907,12.5988653 C78.9571907,15.450147 78.4683009,17.3238348 77.4190872,18.4952445 C76.4768181,19.5462289 75.0502013,20.035634 72.9286507,20.035634 L72.9286507,20.035634 L72.9286507,20.035634 Z M72.9286507,7.86456988 C71.702297,7.86456988 70.9532715,8.20800498 70.4982406,8.97799701 C70.046926,9.74190695 69.845837,10.9854907 69.845837,13.0104197 C69.845837,17.0541957 71.0779715,17.8825757 72.9286507,17.8825757 C74.7793299,17.8825757 76.0118773,17.0541957 76.0118773,13.0104197 C76.0118773,10.9858962 75.8107883,9.74190695 75.3598866,8.97799701 C74.9048557,8.20800498 74.1550044,7.86456988 72.9286507,7.86456988 L72.9286507,7.86456988 L72.9286507,7.86456988 Z" id="Shape"></path>
                        <path d="M72.9286507,5.9138423 C74.9457341,5.9138423 76.3859771,6.43973997 77.3323753,7.52154025 C78.2870318,8.61226093 78.7507339,10.2730758 78.7507339,12.5988653 C78.7507339,15.3982465 78.2779477,17.2293598 77.2638316,18.3610331 C76.3636798,19.3653882 74.9861997,19.8328978 72.9286507,19.8328978 C70.8706888,19.8328978 69.4932087,19.3653882 68.5942956,18.3610331 C67.5797666,17.2301707 67.1073933,15.3990575 67.1073933,12.5988653 C67.1073933,10.2714539 67.5710954,8.61063904 68.5245131,7.52194572 C69.4721501,6.43973997 70.912806,5.9138423 72.9286507,5.9138423 L72.9286507,5.9138423 L72.9286507,5.9138423 Z M72.9286507,18.0853119 C75.2958849,18.0853119 76.2183341,16.6625094 76.2183341,13.0104197 C76.2183341,10.9477818 76.008574,9.67338212 75.5386782,8.87622344 C75.0423559,8.03649016 74.2375871,7.66183369 72.9290636,7.66183369 C71.620953,7.66183369 70.8161842,8.03649016 70.3202748,8.87622344 C69.8495532,9.67297665 69.640206,10.9477818 69.640206,13.0104197 C69.6397931,16.6625094 70.5618293,18.0853119 72.9286507,18.0853119 L72.9286507,18.0853119 L72.9286507,18.0853119 Z M72.9286507,5.50836993 C70.7852157,5.50836993 69.2421572,6.08008597 68.2115246,7.25717227 C67.1895631,8.42412175 66.6944796,10.1713022 66.6944796,12.5988653 C66.6944796,15.5028584 67.1994731,17.4195263 68.2841974,18.6290504 C69.2673449,19.7270696 70.7439243,20.2383702 72.9286507,20.2383702 C75.1133771,20.2383702 76.5895436,19.7270696 77.5739298,18.6290504 C78.6578283,17.4195263 79.1636476,15.5028584 79.1636476,12.5988653 C79.1636476,10.1713022 78.6669124,8.42412175 77.6457768,7.25717227 C76.61597,6.08008597 75.0733244,5.50836993 72.9286507,5.50836993 L72.9286507,5.50836993 L72.9286507,5.50836993 L72.9286507,5.50836993 Z M72.9286507,17.6798396 C71.1527089,17.6798396 70.0522938,16.8980888 70.0522938,13.0104197 C70.0522938,11.0236051 70.2447116,9.81124273 70.6770323,9.07977057 C71.0961397,8.37019392 71.7683632,8.06730606 72.9286507,8.06730606 C74.0881124,8.06730606 74.7615746,8.37019392 75.1810949,9.07977057 C75.6130027,9.8116482 75.8054204,11.0236051 75.8054204,13.0104197 C75.8054204,16.8980888 74.7045925,17.6798396 72.9286507,17.6798396 L72.9286507,17.6798396 L72.9286507,17.6798396 L72.9286507,17.6798396 Z" id="Shape"></path>
                        <path d="M92.3644986,5.70056384 L87.9603611,12.544532 L92.7670895,20.0465818 L88.8782682,20.0465818 L86.1067915,15.2875526 L83.1879045,20.0465818 L79.4923269,20.0465818 L84.2065626,12.6519822 L79.8717946,5.70056384 L83.6895947,5.70056384 L86.1769868,9.90774515 L88.6936958,5.70056384 L92.3644986,5.70056384 Z" id="Combined-Shape"></path>
                    </g>
                </g>
            </g>
        </g>
    </g>
</svg>